<?xml version="1.0" standalone="no"?><!DOCTYPE svg PUBLIC "-//W3C//DTD SVG 1.1//EN" "http://www.w3.org/Graphics/SVG/1.1/DTD/svg11.dtd"><svg class="icon" width="200px" height="200.00px" viewBox="0 0 1024 1024" version="1.1" xmlns="http://www.w3.org/2000/svg"><path d="M96.259838-0.03198l63.960025 975.390381a47.970019 47.970019 0 0 0 47.970018 47.970019h607.620238a47.970019 47.970019 0 0 0 47.970018-47.970019l63.960025-975.390381H96.259838z" fill="#EAEAEA" /><path d="M176.209869 191.848095l47.970019 735.540287a31.980012 31.980012 0 0 0 31.980012 31.980013h511.6802a31.980012 31.980012 0 0 0 31.980012-31.980013l47.970019-735.540287h-671.580262z" fill="#EF4D4D" /><path d="M767.8401 895.40837a31.980012 31.980012 0 0 1-31.980013 31.980012h-127.92005a31.980012 31.980012 0 0 1-31.980012-31.980012v-127.92005a31.980012 31.980012 0 0 1 31.980012-31.980013h127.92005a31.980012 31.980012 0 0 1 31.980013 31.980013v127.92005z" fill="#EAEAEA" /><path d="M735.860087 895.40837h-127.92005a31.980012 31.980012 0 0 1-31.980012-31.980013v31.980013a31.980012 31.980012 0 0 0 31.980012 31.980012h127.92005a31.980012 31.980012 0 0 0 31.980013-31.980012v-31.980013a31.980012 31.980012 0 0 1-31.980013 31.980013z"  /><path d="M438.669831 816.609619a31.884072 31.884072 0 0 1-45.219737 0l-90.439476-90.439475a31.884072 31.884072 0 0 1 0-45.219738l90.439476-90.439475a31.884072 31.884072 0 0 1 45.219737 0l90.439476 90.439475a31.884072 31.884072 0 0 1 0 45.219738l-90.439476 90.439475z" fill="#EAEAEA" /><path d="M416.059963 793.99975l-90.439476-90.439475a31.884072 31.884072 0 0 1 0-45.219738l-22.609869 22.609869a31.884072 31.884072 0 0 0 0 45.219738l90.439476 90.439475a31.884072 31.884072 0 0 0 45.219737 0l22.609869-22.609869a31.980012 31.980012 0 0 1-45.219737 0z"  /><path d="M687.890069 655.558276m-15.990007 0a15.990006 15.990006 0 1 0 31.980013 0 15.990006 15.990006 0 1 0-31.980013 0Z" fill="#FFFFFF" /><path d="M623.930044 559.618239m-15.990007 0a15.990006 15.990006 0 1 0 31.980013 0 15.990006 15.990006 0 1 0-31.980013 0Z" fill="#FFFFFF" /><path d="M496.009994 527.638226m-15.990006 0a15.990006 15.990006 0 1 0 31.980012 0 15.990006 15.990006 0 1 0-31.980012 0Z" fill="#FFFFFF" /><path d="M527.990006 431.698189m-15.990006 0a15.990006 15.990006 0 1 0 31.980012 0 15.990006 15.990006 0 1 0-31.980012 0Z" fill="#FFFFFF" /><path d="M591.950031 271.798126m-15.990006 0a15.990006 15.990006 0 1 0 31.980012 0 15.990006 15.990006 0 1 0-31.980012 0Z" fill="#FFFFFF" /><path d="M751.850094 399.718176m-15.990007 0a15.990006 15.990006 0 1 0 31.980013 0 15.990006 15.990006 0 1 0-31.980013 0Z" fill="#FFFFFF" /><path d="M256.1599-0.03198h31.980013v191.880075H256.1599z" fill="#FFFFFF" /><path d="M256.1599 399.718176a15.990006 15.990006 0 0 0 31.980013 0v-207.870081H256.1599v207.870081z" fill="#FFFFFF" /><path d="M512 831.448345c-156.190381 0-312.348782-42.341537-365.019863-58.107683L160.219863 975.358401a47.970019 47.970019 0 0 0 47.970018 47.970019h607.620238a47.970019 47.970019 0 0 0 47.970018-47.970019l13.591506-207.038601c-21.234728 7.451343-186.283573 63.128545-365.371643 63.128545z"  /></svg>